<?xml version="1.0" encoding="UTF-8" standalone="no"?>
<svg xmlns="http://www.w3.org/2000/svg"
     xmlns:xlink="http://www.w3.org/1999/xlink"
     version="1.1"
     viewBox="0 0 600 320"
     width="500"
     height="300">
    <defs>
        <path d="M523.42 59.98L555.79 64.7L532.37 87.63L537.9 120L508.95 104.71L480 120L485.53 87.63L462.11 64.7L494.47 59.98L508.95 30.53L523.42 59.98Z" id="c5ooqqNxHD"></path>
        <path d="M531.99 63.15L560.79 78.66L530.94 92.2L525.06 124.51L503.08 100.24L470.65 104.7L486.92 76.17L472.75 46.62L504.79 53.25L528.46 30.53L531.99 63.15Z" id="cmgZ7ZTMl"></path>
        <path d="M532.1 71.83L551.64 98.06L518.87 97.71L499.89 124.51L490.23 93.23L458.95 83.56L485.75 64.58L485.4 31.81L511.63 51.36L542.69 40.77L532.1 71.83Z" id="c128S4O57o"></path>
        <path d="M576.62 95.79C608.7 95.79 634.71 110.19 634.71 127.96C634.71 128.63 634.67 129.3 634.59 129.96C657.76 132.66 674.8 141.71 674.8 152.46C674.8 152.46 674.8 152.46 674.8 152.46C674.8 165.35 650.34 175.79 620.17 175.79C606.46 175.79 496.82 175.79 483.12 175.79C452.95 175.79 428.48 165.35 428.48 152.46C428.48 152.46 428.48 152.46 428.48 152.46C428.48 141.23 447.08 131.85 471.83 129.64C474.05 117.46 492.61 107.95 515.18 107.95C520.14 107.95 524.89 108.41 529.34 109.26C539.89 101.1 557.13 95.79 576.62 95.79Z" id="b1P3QCLSly"></path>
        <path d="M87.16 70.53C106.49 70.53 122.16 84.93 122.16 102.7C122.16 103.37 122.14 104.04 122.09 104.7C136.05 107.4 146.32 116.45 146.32 127.2C146.32 127.2 146.32 127.2 146.32 127.2C146.32 140.08 131.58 150.53 113.39 150.53C105.14 150.53 39.07 150.53 30.82 150.53C12.64 150.53 -2.11 140.08 -2.11 127.2C-2.11 127.2 -2.11 127.2 -2.11 127.2C-2.11 115.97 9.1 106.59 24.02 104.37C25.35 92.2 36.53 82.69 50.13 82.69C53.12 82.69 55.99 83.15 58.67 83.99C65.02 75.84 75.41 70.53 87.16 70.53Z" id="g3qHNux9o"></path>
        <path d="M0 382.11L635.79 366.32L610.53 286.32L545.26 303.16L470.65 331.58L384.21 316.84L191.58 320L5.26 351.58L0 382.11Z" id="b2dlrRVcm7"></path>
        <path d="M352.89 247.5L352.9 247.4L352.9 247.3L352.91 247.19L352.93 247.09L352.95 247L352.97 246.9L352.99 246.8L353.02 246.71L353.06 246.62L353.09 246.53L353.13 246.44L353.17 246.35L353.22 246.27L353.27 246.18L353.32 246.1L353.38 246.02L353.44 245.95L353.5 245.87L353.56 245.8L353.63 245.73L353.7 245.67L353.77 245.6L353.84 245.54L353.92 245.48L354 245.43L354.08 245.37L354.16 245.33L354.25 245.28L354.33 245.24L354.42 245.2L354.51 245.16L354.6 245.13L354.7 245.1L354.79 245.07L354.89 245.05L354.99 245.03L355.09 245.02L355.19 245.01L355.29 245L355.39 245L365.39 245L365.5 245L365.6 245.01L365.7 245.02L365.8 245.03L365.9 245.05L366 245.07L366.09 245.1L366.18 245.13L366.28 245.16L366.37 245.2L366.46 245.24L366.54 245.28L366.63 245.33L366.71 245.37L366.79 245.43L366.87 245.48L366.95 245.54L367.02 245.6L367.09 245.67L367.16 245.73L367.23 245.8L367.29 245.87L367.35 245.95L367.41 246.02L367.47 246.1L367.52 246.18L367.57 246.27L367.62 246.35L367.66 246.44L367.7 246.53L367.73 246.62L367.77 246.71L367.8 246.8L367.82 246.9L367.84 247L367.86 247.09L367.88 247.19L367.89 247.3L367.89 247.4L367.89 247.5L367.89 273.75L377.89 285L367.89 285L367.89 320L345.63 320L345.63 319.99L345.64 319.88L345.64 295.6L345.63 295.49L345.63 295.38L345.62 295.27L345.6 295.16L345.58 295.06L345.56 294.95L345.54 294.85L345.51 294.75L345.47 294.65L345.43 294.55L345.39 294.46L345.35 294.36L345.3 294.27L345.25 294.18L345.2 294.09L345.14 294.01L345.08 293.93L345.02 293.85L344.95 293.77L344.88 293.69L344.81 293.62L344.74 293.55L344.66 293.49L344.58 293.42L344.5 293.36L344.41 293.31L344.33 293.25L344.24 293.2L344.15 293.16L344.06 293.12L343.97 293.08L343.87 293.04L343.77 293.01L343.68 292.98L343.58 292.96L343.47 292.94L343.37 292.92L343.27 292.91L343.16 292.91L343.06 292.9L332.73 292.9L332.63 292.91L332.52 292.91L332.42 292.92L332.32 292.94L332.21 292.96L332.11 292.98L332.02 293.01L331.92 293.04L331.82 293.08L331.73 293.12L331.64 293.16L331.55 293.2L331.46 293.25L331.37 293.31L331.29 293.36L331.21 293.42L331.13 293.49L331.05 293.55L330.98 293.62L330.91 293.69L330.84 293.77L330.77 293.85L330.71 293.93L330.65 294.01L330.59 294.09L330.54 294.18L330.49 294.27L330.44 294.36L330.4 294.46L330.36 294.55L330.32 294.65L330.28 294.75L330.25 294.85L330.23 294.95L330.21 295.06L330.19 295.16L330.17 295.27L330.16 295.38L330.15 295.49L330.15 295.6L330.15 319.88L330.15 319.99L330.15 320L307.89 320L307.89 285L297.89 285L337.89 240L352.89 256.88L352.89 247.5Z" id="j2Sfc6VULC"></path>
    </defs>
    <g>
        <g>
            <g>
                <use xlink:href="#c5ooqqNxHD" opacity="1" fill="#f5e15b" fill-opacity="1"></use>
                <g>
                    <use xlink:href="#c5ooqqNxHD" opacity="1" fill-opacity="0" stroke="#f9dc13" stroke-width="1" stroke-opacity="1"></use>
                </g>
            </g>
            <g>
                <use xlink:href="#cmgZ7ZTMl" opacity="1" fill="#f5e15b" fill-opacity="1"></use>
                <g>
                    <use xlink:href="#cmgZ7ZTMl" opacity="1" fill-opacity="0" stroke="#f9dc13" stroke-width="1" stroke-opacity="1"></use>
                </g>
            </g>
            <g>
                <use xlink:href="#c128S4O57o" opacity="1" fill="#f5e15b" fill-opacity="1"></use>
                <g>
                    <use xlink:href="#c128S4O57o" opacity="1" fill-opacity="0" stroke="#f9dc13" stroke-width="1" stroke-opacity="1"></use>
                </g>
            </g>
            <g>
                <use xlink:href="#b1P3QCLSly" opacity="1" fill="#bbd0e3" fill-opacity="1"></use>
                <g>
                    <use xlink:href="#b1P3QCLSly" opacity="1" fill-opacity="0" stroke="#bbd0e3" stroke-width="1" stroke-opacity="1"></use>
                </g>
            </g>
            <g>
                <use xlink:href="#g3qHNux9o" opacity="1" fill="#bbd0e3" fill-opacity="1"></use>
                <g>
                    <use xlink:href="#g3qHNux9o" opacity="1" fill-opacity="0" stroke="#bbd0e3" stroke-width="1" stroke-opacity="1"></use>
                </g>
            </g>
            <g>
                <use xlink:href="#b2dlrRVcm7" opacity="1" fill="#4fcc16" fill-opacity="1"></use>
                <g>
                    <use xlink:href="#b2dlrRVcm7" opacity="1" fill-opacity="0" stroke="#4fcc16" stroke-width="1" stroke-opacity="1"></use>
                </g>
            </g>
            <g>
                <use xlink:href="#j2Sfc6VULC" opacity="1" fill="#7b3707" fill-opacity="1"></use>
                <g>
                    <use xlink:href="#j2Sfc6VULC" opacity="1" fill-opacity="0" stroke="#7b3707" stroke-width="1" stroke-opacity="1"></use>
                </g>
            </g>
        </g>
    </g>
</svg>
