<?xml version="1.0" encoding="UTF-8" standalone="no"?>
<svg xmlns="http://www.w3.org/2000/svg"
     xmlns:xlink="http://www.w3.org/1999/xlink"
     version="1.1"
     viewBox="0 0 600 320"
     width="500"
     height="300">

    <defs>
        <path d="M358.16 38.92L390.53 43.65L367.11 66.58L372.63 98.95L343.68 83.66L314.73 98.95L320.26 66.58L296.84 43.65L329.21 38.92L343.68 9.47L358.16 38.92Z" id="b1r9C5coke"></path>
        <path d="M366.73 42.1L395.52 57.61L365.67 71.14L359.8 103.45L337.82 79.19L305.39 83.65L321.66 55.12L307.49 25.57L339.52 32.2L363.19 9.47L366.73 42.1Z" id="hdjIHK9nB"></path>
        <path d="M366.83 50.78L386.38 77L353.61 76.65L334.63 103.45L324.96 72.17L293.69 62.51L320.49 43.53L320.13 10.76L346.36 30.31L377.42 19.71L366.83 50.78Z" id="btMp8fqP8"></path>
        <path d="M0 382.11L635.79 366.32L610.53 286.32L545.26 303.16L470.65 331.58L384.21 316.84L191.58 320L5.26 351.58L0 382.11Z" id="b2dlrRVcm7"></path>
        <path d="M352.89 247.5L352.9 247.4L352.9 247.3L352.91 247.19L352.93 247.09L352.95 247L352.97 246.9L352.99 246.8L353.02 246.71L353.06 246.62L353.09 246.53L353.13 246.44L353.17 246.35L353.22 246.27L353.27 246.18L353.32 246.1L353.38 246.02L353.44 245.95L353.5 245.87L353.56 245.8L353.63 245.73L353.7 245.67L353.77 245.6L353.84 245.54L353.92 245.48L354 245.43L354.08 245.37L354.16 245.33L354.25 245.28L354.33 245.24L354.42 245.2L354.51 245.16L354.6 245.13L354.7 245.1L354.79 245.07L354.89 245.05L354.99 245.03L355.09 245.02L355.19 245.01L355.29 245L355.39 245L365.39 245L365.5 245L365.6 245.01L365.7 245.02L365.8 245.03L365.9 245.05L366 245.07L366.09 245.1L366.18 245.13L366.28 245.16L366.37 245.2L366.46 245.24L366.54 245.28L366.63 245.33L366.71 245.37L366.79 245.43L366.87 245.48L366.95 245.54L367.02 245.6L367.09 245.67L367.16 245.73L367.23 245.8L367.29 245.87L367.35 245.95L367.41 246.02L367.47 246.1L367.52 246.18L367.57 246.27L367.62 246.35L367.66 246.44L367.7 246.53L367.73 246.62L367.77 246.71L367.8 246.8L367.82 246.9L367.84 247L367.86 247.09L367.88 247.19L367.89 247.3L367.89 247.4L367.89 247.5L367.89 273.75L377.89 285L367.89 285L367.89 320L345.63 320L345.63 319.99L345.64 319.88L345.64 295.6L345.63 295.49L345.63 295.38L345.62 295.27L345.6 295.16L345.58 295.06L345.56 294.95L345.54 294.85L345.51 294.75L345.47 294.65L345.43 294.55L345.39 294.46L345.35 294.36L345.3 294.27L345.25 294.18L345.2 294.09L345.14 294.01L345.08 293.93L345.02 293.85L344.95 293.77L344.88 293.69L344.81 293.62L344.74 293.55L344.66 293.49L344.58 293.42L344.5 293.36L344.41 293.31L344.33 293.25L344.24 293.2L344.15 293.16L344.06 293.12L343.97 293.08L343.87 293.04L343.77 293.01L343.68 292.98L343.58 292.96L343.47 292.94L343.37 292.92L343.27 292.91L343.16 292.91L343.06 292.9L332.73 292.9L332.63 292.91L332.52 292.91L332.42 292.92L332.32 292.94L332.21 292.96L332.11 292.98L332.02 293.01L331.92 293.04L331.82 293.08L331.73 293.12L331.64 293.16L331.55 293.2L331.46 293.25L331.37 293.31L331.29 293.36L331.21 293.42L331.13 293.49L331.05 293.55L330.98 293.62L330.91 293.69L330.84 293.77L330.77 293.85L330.71 293.93L330.65 294.01L330.59 294.09L330.54 294.18L330.49 294.27L330.44 294.36L330.4 294.46L330.36 294.55L330.32 294.65L330.28 294.75L330.25 294.85L330.23 294.95L330.21 295.06L330.19 295.16L330.17 295.27L330.16 295.38L330.15 295.49L330.15 295.6L330.15 319.88L330.15 319.99L330.15 320L307.89 320L307.89 285L297.89 285L337.89 240L352.89 256.88L352.89 247.5Z" id="j2Sfc6VULC"></path>
    </defs>
    <g>
        <g>
            <g>
                <use xlink:href="#b1r9C5coke" opacity="1" fill="#f5e15b" fill-opacity="1"></use>
                <g>
                    <use xlink:href="#b1r9C5coke" opacity="1" fill-opacity="0" stroke="#f9dc13" stroke-width="1" stroke-opacity="1"></use>
                </g>
            </g>
            <g>
                <use xlink:href="#hdjIHK9nB" opacity="1" fill="#f5e15b" fill-opacity="1"></use>
                <g>
                    <use xlink:href="#hdjIHK9nB" opacity="1" fill-opacity="0" stroke="#f9dc13" stroke-width="1" stroke-opacity="1"></use>
                </g>
            </g>
            <g>
                <use xlink:href="#btMp8fqP8" opacity="1" fill="#f5e15b" fill-opacity="1"></use>
                <g>
                    <use xlink:href="#btMp8fqP8" opacity="1" fill-opacity="0" stroke="#f9dc13" stroke-width="1" stroke-opacity="1"></use>
                </g>
            </g>
            <g>
                <use xlink:href="#b2dlrRVcm7" opacity="1" fill="#4fcc16" fill-opacity="1"></use>
                <g>
                    <use xlink:href="#b2dlrRVcm7" opacity="1" fill-opacity="0" stroke="#4fcc16" stroke-width="1" stroke-opacity="1"></use>
                </g>
            </g>
            <g>
                <use xlink:href="#j2Sfc6VULC" opacity="1" fill="#7b3707" fill-opacity="1"></use>
                <g>
                    <use xlink:href="#j2Sfc6VULC" opacity="1" fill-opacity="0" stroke="#7b3707" stroke-width="1" stroke-opacity="1"></use>
                </g>
            </g>
        </g>
    </g>
</svg>
